# xmcd
#
# Track frame offsets:
#	150
#	15838
#	42388
#	68063
#
# Disc length: 1286 seconds
#
# Revision: 0
# Processed by: cddbd v1.5.2PL0 Copyright (c) Steve Scherf et al.
# Submitted via: dBpowerAMP V4.0
#
DISCID=26050404
DTITLE=Zupa Dupa - Superfun [CDS]
DYEAR=2000
DGENRE=Dance
TTITLE0=Superfun (Vocal Radio Mix)
TTITLE1=Superfun (Club Remix)
TTITLE2=Superfun (Fruit Mix)
TTITLE3=Superfun (Party Mix)
EXTD=
EXTT0=
EXTT1=
EXTT2=
EXTT3=
PLAYORDER=
